# xmcd
#
# Track frame offsets:
#	150
#	10937
#	32472
#	63540
#	83345
#	124472
#	137512
#	167632
#	198010
#	223622
#	236345
#	270015
#
# Disc length: 3991 seconds
#
# Revision: 1
# Processed by: cddbd v1.5.2PL0 Copyright (c) Steve Scherf et al.
# Submitted via: audiograbber 1.83.01
#
DISCID=8f0f950c
DTITLE=Stella Quest - The Surreal Life Adventures Of Stella Quest
DYEAR=1992
DGENRE=Pop
TTITLE0=Beginnig Of Narrative
TTITLE1=Pre-natal Solar Eclipse
TTITLE2=Return To The 12th House On 5. Node
TTITLE3=I Can´t Ask and You Can´t Say
TTITLE4=Prison Walls
TTITLE5=Someday
TTITLE6=Rising Tide
TTITLE7=Grounded Blues
TTITLE8=Eternal Garden
TTITLE9=I Feel The Sun
TTITLE10=Nomad´s Lament
TTITLE11=If You Dance With Me
EXTD=
EXTT0=
EXTT1=
EXTT2=
EXTT3=
EXTT4=
EXTT5=
EXTT6=
EXTT7=
EXTT8=
EXTT9=
EXTT10=
EXTT11=
PLAYORDER=
